<svg width="35" height="35" viewBox="0 0 35 35" fill="none" xmlns="http://www.w3.org/2000/svg">
<path d="M12.0312 27.8906C11.4843 27.3437 9.84372 27.3437 9.84372 27.3437L9.61087 26.6473C9.41327 26.0535 8.9465 25.5867 8.35263 25.3891L7.65622 25.1562C7.65622 25.1562 7.92965 23.7891 7.10934 22.9687L20.7812 9.29687L25.1562 14.7656L12.0312 27.8906ZM28.4375 11.4844L23.5156 6.5625L26.0748 4.0033C26.0748 4.0033 27.9889 3.18298 29.9029 5.09705C31.817 7.01111 30.9967 8.92517 30.9967 8.92517L28.4375 11.4844ZM4.92184 27.3437L3.91354 29.7919C3.57815 30.6068 4.39312 31.4218 5.2081 31.0864L7.65622 30.0781L4.92184 27.3437Z" fill="white"/>
</svg>
