<svg width="159" height="56" viewBox="0 0 159 56" fill="none" xmlns="http://www.w3.org/2000/svg">
<path d="M2.16797 6.67188H9.71191C11.333 6.67188 12.7148 6.91602 13.8574 7.4043C15 7.89258 15.874 8.61523 16.4795 9.57227C17.0947 10.5195 17.4023 11.6914 17.4023 13.0879C17.4023 14.1523 17.207 15.0898 16.8164 15.9004C16.4258 16.7109 15.874 17.3945 15.1611 17.9512C14.4482 18.498 13.5986 18.9229 12.6123 19.2256L11.499 19.7676H4.7168L4.6875 16.8525H9.77051C10.6494 16.8525 11.3818 16.6963 11.9678 16.3838C12.5537 16.0713 12.9932 15.6465 13.2861 15.1094C13.5889 14.5625 13.7402 13.9473 13.7402 13.2637C13.7402 12.5215 13.5938 11.877 13.3008 11.3301C13.0176 10.7734 12.5781 10.3486 11.9824 10.0557C11.3867 9.75293 10.6299 9.60156 9.71191 9.60156H5.84473V28H2.16797V6.67188ZM14.3408 28L9.33105 18.4199L13.1836 18.4053L18.2666 27.8096V28H14.3408ZM29.6484 24.8213V17.2627C29.6484 16.6963 29.5459 16.208 29.3408 15.7979C29.1357 15.3877 28.8232 15.0703 28.4033 14.8457C27.9932 14.6211 27.4756 14.5088 26.8506 14.5088C26.2744 14.5088 25.7764 14.6064 25.3564 14.8018C24.9365 14.9971 24.6094 15.2607 24.375 15.5928C24.1406 15.9248 24.0234 16.3008 24.0234 16.7207H20.5078C20.5078 16.0957 20.6592 15.4902 20.9619 14.9043C21.2646 14.3184 21.7041 13.7959 22.2803 13.3369C22.8564 12.8779 23.5449 12.5166 24.3457 12.2529C25.1465 11.9893 26.0449 11.8574 27.041 11.8574C28.2324 11.8574 29.2871 12.0576 30.2051 12.458C31.1328 12.8584 31.8604 13.4639 32.3877 14.2744C32.9248 15.0752 33.1934 16.0811 33.1934 17.292V24.3379C33.1934 25.0605 33.2422 25.71 33.3398 26.2861C33.4473 26.8525 33.5986 27.3457 33.7939 27.7656V28H30.1758C30.0098 27.6191 29.8779 27.1357 29.7803 26.5498C29.6924 25.9541 29.6484 25.3779 29.6484 24.8213ZM30.1611 18.3613L30.1904 20.5439H27.6562C27.002 20.5439 26.4258 20.6074 25.9277 20.7344C25.4297 20.8516 25.0146 21.0273 24.6826 21.2617C24.3506 21.4961 24.1016 21.7793 23.9355 22.1113C23.7695 22.4434 23.6865 22.8193 23.6865 23.2393C23.6865 23.6592 23.7842 24.0449 23.9795 24.3965C24.1748 24.7383 24.458 25.0068 24.8291 25.2021C25.21 25.3975 25.6689 25.4951 26.2061 25.4951C26.9287 25.4951 27.5586 25.3486 28.0957 25.0557C28.6426 24.7529 29.0723 24.3867 29.3848 23.957C29.6973 23.5176 29.8633 23.1025 29.8828 22.7119L31.0254 24.2793C30.9082 24.6797 30.708 25.1094 30.4248 25.5684C30.1416 26.0273 29.7705 26.4668 29.3115 26.8867C28.8623 27.2969 28.3203 27.6338 27.6855 27.8975C27.0605 28.1611 26.3379 28.293 25.5176 28.293C24.4824 28.293 23.5596 28.0879 22.749 27.6777C21.9385 27.2578 21.3037 26.6963 20.8447 25.9932C20.3857 25.2803 20.1562 24.4746 20.1562 23.5762C20.1562 22.7363 20.3125 21.9941 20.625 21.3496C20.9473 20.6953 21.416 20.1484 22.0312 19.709C22.6562 19.2695 23.418 18.9375 24.3164 18.7129C25.2148 18.4785 26.2402 18.3613 27.3926 18.3613H30.1611ZM44.1504 12.1504V14.7285H35.2148V12.1504H44.1504ZM37.793 8.26855H41.3232V23.6201C41.3232 24.1084 41.3916 24.4844 41.5283 24.748C41.6748 25.002 41.875 25.1729 42.1289 25.2607C42.3828 25.3486 42.6807 25.3926 43.0225 25.3926C43.2666 25.3926 43.501 25.3779 43.7256 25.3486C43.9502 25.3193 44.1309 25.29 44.2676 25.2607L44.2822 27.9561C43.9893 28.0439 43.6475 28.1221 43.2568 28.1904C42.876 28.2588 42.4365 28.293 41.9385 28.293C41.1279 28.293 40.4102 28.1514 39.7852 27.8682C39.1602 27.5752 38.6719 27.1016 38.3203 26.4473C37.9688 25.793 37.793 24.9238 37.793 23.8398V8.26855ZM53.8623 28.293C52.6904 28.293 51.6309 28.1025 50.6836 27.7217C49.7461 27.3311 48.9453 26.7891 48.2812 26.0957C47.627 25.4023 47.124 24.5869 46.7725 23.6494C46.4209 22.7119 46.2451 21.7012 46.2451 20.6172V20.0312C46.2451 18.791 46.4258 17.668 46.7871 16.6621C47.1484 15.6562 47.6514 14.7969 48.2959 14.084C48.9404 13.3613 49.7021 12.8096 50.5811 12.4287C51.46 12.0479 52.4121 11.8574 53.4375 11.8574C54.5703 11.8574 55.5615 12.0479 56.4111 12.4287C57.2607 12.8096 57.9639 13.3467 58.5205 14.04C59.0869 14.7236 59.5068 15.5391 59.7803 16.4863C60.0635 17.4336 60.2051 18.4785 60.2051 19.6211V21.1299H47.959V18.5957H56.7188V18.3174C56.6992 17.6826 56.5723 17.0869 56.3379 16.5303C56.1133 15.9736 55.7666 15.5244 55.2979 15.1826C54.8291 14.8408 54.2041 14.6699 53.4229 14.6699C52.8369 14.6699 52.3145 14.7969 51.8555 15.0508C51.4062 15.2949 51.0303 15.6514 50.7275 16.1201C50.4248 16.5889 50.1904 17.1553 50.0244 17.8193C49.8682 18.4736 49.79 19.2109 49.79 20.0312V20.6172C49.79 21.3105 49.8828 21.9551 50.0684 22.5508C50.2637 23.1367 50.5469 23.6494 50.918 24.0889C51.2891 24.5283 51.7383 24.875 52.2656 25.1289C52.793 25.373 53.3936 25.4951 54.0674 25.4951C54.917 25.4951 55.6738 25.3242 56.3379 24.9824C57.002 24.6406 57.5781 24.1572 58.0664 23.5322L59.9268 25.334C59.585 25.832 59.1406 26.3105 58.5938 26.7695C58.0469 27.2188 57.3779 27.585 56.5869 27.8682C55.8057 28.1514 54.8975 28.293 53.8623 28.293Z" fill="white"/>
<path d="M64.8047 6.67188H68.0859L74.2529 23.1221L80.4053 6.67188H83.6865L75.542 28H72.9346L64.8047 6.67188ZM63.3105 6.67188H66.4307L66.9727 20.9102V28H63.3105V6.67188ZM82.0605 6.67188H85.1953V28H81.5186V20.9102L82.0605 6.67188ZM88.5352 20.251V19.9141C88.5352 18.7715 88.7012 17.7119 89.0332 16.7354C89.3652 15.749 89.8438 14.8945 90.4688 14.1719C91.1035 13.4395 91.875 12.873 92.7832 12.4727C93.7012 12.0625 94.7363 11.8574 95.8887 11.8574C97.0508 11.8574 98.0859 12.0625 98.9941 12.4727C99.9121 12.873 100.688 13.4395 101.323 14.1719C101.958 14.8945 102.441 15.749 102.773 16.7354C103.105 17.7119 103.271 18.7715 103.271 19.9141V20.251C103.271 21.3936 103.105 22.4531 102.773 23.4297C102.441 24.4062 101.958 25.2607 101.323 25.9932C100.688 26.7158 99.917 27.2822 99.0088 27.6924C98.1006 28.0928 97.0703 28.293 95.918 28.293C94.7559 28.293 93.7158 28.0928 92.7979 27.6924C91.8896 27.2822 91.1182 26.7158 90.4834 25.9932C89.8486 25.2607 89.3652 24.4062 89.0332 23.4297C88.7012 22.4531 88.5352 21.3936 88.5352 20.251ZM92.0654 19.9141V20.251C92.0654 20.9639 92.1387 21.6377 92.2852 22.2725C92.4316 22.9072 92.6611 23.4639 92.9736 23.9424C93.2861 24.4209 93.6865 24.7969 94.1748 25.0703C94.6631 25.3438 95.2441 25.4805 95.918 25.4805C96.5723 25.4805 97.1387 25.3438 97.6172 25.0703C98.1055 24.7969 98.5059 24.4209 98.8184 23.9424C99.1309 23.4639 99.3604 22.9072 99.5068 22.2725C99.6631 21.6377 99.7412 20.9639 99.7412 20.251V19.9141C99.7412 19.2109 99.6631 18.5469 99.5068 17.9219C99.3604 17.2871 99.126 16.7256 98.8037 16.2373C98.4912 15.749 98.0908 15.3682 97.6025 15.0947C97.124 14.8115 96.5527 14.6699 95.8887 14.6699C95.2246 14.6699 94.6484 14.8115 94.1602 15.0947C93.6816 15.3682 93.2861 15.749 92.9736 16.2373C92.6611 16.7256 92.4316 17.2871 92.2852 17.9219C92.1387 18.5469 92.0654 19.2109 92.0654 19.9141ZM111.152 25.2021L115.034 12.1504H118.696L113.188 28H110.903L111.152 25.2021ZM108.179 12.1504L112.134 25.2607L112.324 28H110.039L104.502 12.1504H108.179ZM124.658 12.1504V28H121.113V12.1504H124.658ZM120.879 7.99023C120.879 7.45312 121.055 7.00879 121.406 6.65723C121.768 6.2959 122.266 6.11523 122.9 6.11523C123.525 6.11523 124.019 6.2959 124.38 6.65723C124.741 7.00879 124.922 7.45312 124.922 7.99023C124.922 8.51758 124.741 8.95703 124.38 9.30859C124.019 9.66016 123.525 9.83594 122.9 9.83594C122.266 9.83594 121.768 9.66016 121.406 9.30859C121.055 8.95703 120.879 8.51758 120.879 7.99023ZM135.513 28.293C134.341 28.293 133.281 28.1025 132.334 27.7217C131.396 27.3311 130.596 26.7891 129.932 26.0957C129.277 25.4023 128.774 24.5869 128.423 23.6494C128.071 22.7119 127.896 21.7012 127.896 20.6172V20.0312C127.896 18.791 128.076 17.668 128.438 16.6621C128.799 15.6562 129.302 14.7969 129.946 14.084C130.591 13.3613 131.353 12.8096 132.231 12.4287C133.11 12.0479 134.062 11.8574 135.088 11.8574C136.221 11.8574 137.212 12.0479 138.062 12.4287C138.911 12.8096 139.614 13.3467 140.171 14.04C140.737 14.7236 141.157 15.5391 141.431 16.4863C141.714 17.4336 141.855 18.4785 141.855 19.6211V21.1299H129.609V18.5957H138.369V18.3174C138.35 17.6826 138.223 17.0869 137.988 16.5303C137.764 15.9736 137.417 15.5244 136.948 15.1826C136.479 14.8408 135.854 14.6699 135.073 14.6699C134.487 14.6699 133.965 14.7969 133.506 15.0508C133.057 15.2949 132.681 15.6514 132.378 16.1201C132.075 16.5889 131.841 17.1553 131.675 17.8193C131.519 18.4736 131.44 19.2109 131.44 20.0312V20.6172C131.44 21.3105 131.533 21.9551 131.719 22.5508C131.914 23.1367 132.197 23.6494 132.568 24.0889C132.939 24.5283 133.389 24.875 133.916 25.1289C134.443 25.373 135.044 25.4951 135.718 25.4951C136.567 25.4951 137.324 25.3242 137.988 24.9824C138.652 24.6406 139.229 24.1572 139.717 23.5322L141.577 25.334C141.235 25.832 140.791 26.3105 140.244 26.7695C139.697 27.2188 139.028 27.585 138.237 27.8682C137.456 28.1514 136.548 28.293 135.513 28.293ZM153.501 23.708C153.501 23.3564 153.413 23.0391 153.237 22.7559C153.062 22.4629 152.725 22.1992 152.227 21.9648C151.738 21.7305 151.016 21.5156 150.059 21.3203C149.219 21.1348 148.447 20.915 147.744 20.6611C147.051 20.3975 146.455 20.0801 145.957 19.709C145.459 19.3379 145.073 18.8984 144.8 18.3906C144.526 17.8828 144.39 17.2969 144.39 16.6328C144.39 15.9883 144.531 15.3779 144.814 14.8018C145.098 14.2256 145.503 13.7178 146.03 13.2783C146.558 12.8389 147.197 12.4922 147.949 12.2383C148.711 11.9844 149.561 11.8574 150.498 11.8574C151.826 11.8574 152.964 12.082 153.911 12.5312C154.868 12.9707 155.601 13.5713 156.108 14.333C156.616 15.085 156.87 15.9346 156.87 16.8818H153.34C153.34 16.4619 153.232 16.0713 153.018 15.71C152.812 15.3389 152.5 15.041 152.08 14.8164C151.66 14.582 151.133 14.4648 150.498 14.4648C149.893 14.4648 149.39 14.5625 148.989 14.7578C148.599 14.9434 148.306 15.1875 148.11 15.4902C147.925 15.793 147.832 16.125 147.832 16.4863C147.832 16.75 147.881 16.9893 147.979 17.2041C148.086 17.4092 148.262 17.5996 148.506 17.7754C148.75 17.9414 149.082 18.0977 149.502 18.2441C149.932 18.3906 150.469 18.5322 151.113 18.6689C152.324 18.9229 153.364 19.25 154.233 19.6504C155.112 20.041 155.786 20.5488 156.255 21.1738C156.724 21.7891 156.958 22.5703 156.958 23.5176C156.958 24.2207 156.807 24.8652 156.504 25.4512C156.211 26.0273 155.781 26.5303 155.215 26.96C154.648 27.3799 153.97 27.707 153.179 27.9414C152.397 28.1758 151.519 28.293 150.542 28.293C149.106 28.293 147.891 28.0391 146.895 27.5312C145.898 27.0137 145.142 26.3545 144.624 25.5537C144.116 24.7432 143.862 23.9033 143.862 23.0342H147.275C147.314 23.6885 147.495 24.2109 147.817 24.6016C148.149 24.9824 148.56 25.2607 149.048 25.4365C149.546 25.6025 150.059 25.6855 150.586 25.6855C151.221 25.6855 151.753 25.6025 152.183 25.4365C152.612 25.2607 152.939 25.0264 153.164 24.7334C153.389 24.4307 153.501 24.0889 153.501 23.708Z" fill="#0F79AF"/>
<path d="M1.17773 50.9453C1.17773 50.6172 1.28906 50.3418 1.51172 50.1191C1.73438 49.8906 2.03613 49.7764 2.41699 49.7764C2.80371 49.7764 3.10547 49.8906 3.32227 50.1191C3.54492 50.3418 3.65625 50.6172 3.65625 50.9453C3.65625 51.2734 3.54492 51.5488 3.32227 51.7715C3.10547 51.9941 2.80371 52.1055 2.41699 52.1055C2.03613 52.1055 1.73438 51.9941 1.51172 51.7715C1.28906 51.5488 1.17773 51.2734 1.17773 50.9453ZM9.98438 50.4883C10.3301 50.4883 10.6406 50.4209 10.916 50.2861C11.1973 50.1455 11.4229 49.9521 11.5928 49.7061C11.7686 49.46 11.8652 49.1758 11.8828 48.8535H13.8779C13.8662 49.4688 13.6846 50.0283 13.333 50.5322C12.9814 51.0361 12.5156 51.4375 11.9355 51.7363C11.3555 52.0293 10.7139 52.1758 10.0107 52.1758C9.28418 52.1758 8.65137 52.0527 8.1123 51.8066C7.57324 51.5547 7.125 51.209 6.76758 50.7695C6.41016 50.3301 6.14062 49.8232 5.95898 49.249C5.7832 48.6748 5.69531 48.0596 5.69531 47.4033V47.0957C5.69531 46.4395 5.7832 45.8242 5.95898 45.25C6.14062 44.6699 6.41016 44.1602 6.76758 43.7207C7.125 43.2812 7.57324 42.9385 8.1123 42.6924C8.65137 42.4404 9.28125 42.3145 10.002 42.3145C10.7637 42.3145 11.4316 42.4668 12.0059 42.7715C12.5801 43.0703 13.0312 43.4893 13.3594 44.0283C13.6934 44.5615 13.8662 45.1826 13.8779 45.8916H11.8828C11.8652 45.54 11.7773 45.2236 11.6191 44.9424C11.4668 44.6553 11.25 44.4268 10.9688 44.2568C10.6934 44.0869 10.3623 44.002 9.97559 44.002C9.54785 44.002 9.19336 44.0898 8.91211 44.2656C8.63086 44.4355 8.41113 44.6699 8.25293 44.9688C8.09473 45.2617 7.98047 45.5928 7.91016 45.9619C7.8457 46.3252 7.81348 46.7031 7.81348 47.0957V47.4033C7.81348 47.7959 7.8457 48.1768 7.91016 48.5459C7.97461 48.915 8.08594 49.2461 8.24414 49.5391C8.4082 49.8262 8.63086 50.0576 8.91211 50.2334C9.19336 50.4033 9.55078 50.4883 9.98438 50.4883ZM15.0996 47.3506V47.1484C15.0996 46.4629 15.1992 45.8271 15.3984 45.2412C15.5977 44.6494 15.8848 44.1367 16.2598 43.7031C16.6406 43.2637 17.1035 42.9238 17.6484 42.6836C18.1992 42.4375 18.8203 42.3145 19.5117 42.3145C20.209 42.3145 20.8301 42.4375 21.375 42.6836C21.9258 42.9238 22.3916 43.2637 22.7725 43.7031C23.1533 44.1367 23.4434 44.6494 23.6426 45.2412C23.8418 45.8271 23.9414 46.4629 23.9414 47.1484V47.3506C23.9414 48.0361 23.8418 48.6719 23.6426 49.2578C23.4434 49.8438 23.1533 50.3564 22.7725 50.7959C22.3916 51.2295 21.9287 51.5693 21.3838 51.8154C20.8389 52.0557 20.2207 52.1758 19.5293 52.1758C18.832 52.1758 18.208 52.0557 17.6572 51.8154C17.1123 51.5693 16.6494 51.2295 16.2686 50.7959C15.8877 50.3564 15.5977 49.8438 15.3984 49.2578C15.1992 48.6719 15.0996 48.0361 15.0996 47.3506ZM17.2178 47.1484V47.3506C17.2178 47.7783 17.2617 48.1826 17.3496 48.5635C17.4375 48.9443 17.5752 49.2783 17.7627 49.5654C17.9502 49.8525 18.1904 50.0781 18.4834 50.2422C18.7764 50.4062 19.125 50.4883 19.5293 50.4883C19.9219 50.4883 20.2617 50.4062 20.5488 50.2422C20.8418 50.0781 21.082 49.8525 21.2695 49.5654C21.457 49.2783 21.5947 48.9443 21.6826 48.5635C21.7764 48.1826 21.8232 47.7783 21.8232 47.3506V47.1484C21.8232 46.7266 21.7764 46.3281 21.6826 45.9531C21.5947 45.5723 21.4541 45.2354 21.2607 44.9424C21.0732 44.6494 20.833 44.4209 20.54 44.2568C20.2529 44.0869 19.9102 44.002 19.5117 44.002C19.1133 44.002 18.7676 44.0869 18.4746 44.2568C18.1875 44.4209 17.9502 44.6494 17.7627 44.9424C17.5752 45.2354 17.4375 45.5723 17.3496 45.9531C17.2617 46.3281 17.2178 46.7266 17.2178 47.1484ZM27.835 44.4238V52H25.7168V42.4902H27.7119L27.835 44.4238ZM27.4922 46.8936L26.7715 46.8848C26.7715 46.2285 26.8535 45.6221 27.0176 45.0654C27.1816 44.5088 27.4219 44.0254 27.7383 43.6152C28.0547 43.1992 28.4473 42.8799 28.916 42.6572C29.3906 42.4287 29.9385 42.3145 30.5596 42.3145C30.9932 42.3145 31.3887 42.3789 31.7461 42.5078C32.1094 42.6309 32.4229 42.8271 32.6865 43.0967C32.9561 43.3662 33.1611 43.7119 33.3018 44.1338C33.4482 44.5557 33.5215 45.0654 33.5215 45.6631V52H31.4033V45.8477C31.4033 45.3848 31.333 45.0215 31.1924 44.7578C31.0576 44.4941 30.8613 44.3066 30.6035 44.1953C30.3516 44.0781 30.0498 44.0195 29.6982 44.0195C29.2998 44.0195 28.96 44.0957 28.6787 44.248C28.4033 44.4004 28.1777 44.6084 28.002 44.8721C27.8262 45.1357 27.6973 45.4404 27.6152 45.7861C27.5332 46.1318 27.4922 46.501 27.4922 46.8936ZM33.3896 46.3311L32.3965 46.5508C32.3965 45.9766 32.4756 45.4346 32.6338 44.9248C32.7979 44.4092 33.0352 43.958 33.3457 43.5713C33.6621 43.1787 34.0518 42.8711 34.5146 42.6484C34.9775 42.4258 35.5078 42.3145 36.1055 42.3145C36.5918 42.3145 37.0254 42.3818 37.4062 42.5166C37.793 42.6455 38.1211 42.8506 38.3906 43.1318C38.6602 43.4131 38.8652 43.7793 39.0059 44.2305C39.1465 44.6758 39.2168 45.2148 39.2168 45.8477V52H37.0898V45.8389C37.0898 45.3584 37.0195 44.9863 36.8789 44.7227C36.7441 44.459 36.5508 44.2773 36.2988 44.1777C36.0469 44.0723 35.7451 44.0195 35.3936 44.0195C35.0654 44.0195 34.7754 44.0811 34.5234 44.2041C34.2773 44.3213 34.0693 44.4883 33.8994 44.7051C33.7295 44.916 33.6006 45.1592 33.5127 45.4346C33.4307 45.71 33.3896 46.0088 33.3896 46.3311Z" fill="white"/>
</svg>
